<?xml version="1.0" encoding="UTF-8" standalone="no"?>
<!-- Generator: Adobe Illustrator 18.1.1, SVG Export Plug-In  -->

<svg
   xmlns:dc="http://purl.org/dc/elements/1.1/"
   xmlns:cc="http://creativecommons.org/ns#"
   xmlns:rdf="http://www.w3.org/1999/02/22-rdf-syntax-ns#"
   xmlns:svg="http://www.w3.org/2000/svg"
   xmlns="http://www.w3.org/2000/svg"
   xmlns:sodipodi="http://sodipodi.sourceforge.net/DTD/sodipodi-0.dtd"
   xmlns:inkscape="http://www.inkscape.org/namespaces/inkscape"
   version="1.1"
   x="0px"
   y="0px"
   width="241.7px"
   height="279.1px"
   viewBox="0 0 241.7 279.1"
   enable-background="new 0 0 241.7 279.1"
   xml:space="preserve"
   id="svg3243"
   inkscape:version="0.48.4 r9939"
   sodipodi:docname="node-school-hav.1.svg"><metadata
     id="metadata3251"><rdf:RDF><cc:Work
         rdf:about=""><dc:format>image/svg+xml</dc:format><dc:type
           rdf:resource="http://purl.org/dc/dcmitype/StillImage" /><dc:title /></cc:Work></rdf:RDF></metadata><sodipodi:namedview
     pagecolor="#ffffff"
     bordercolor="#666666"
     borderopacity="1"
     objecttolerance="10"
     gridtolerance="10"
     guidetolerance="10"
     inkscape:pageopacity="0"
     inkscape:pageshadow="2"
     inkscape:window-width="1002"
     inkscape:window-height="849"
     id="namedview3249"
     showgrid="false"
     inkscape:zoom="1"
     inkscape:cx="107.7134"
     inkscape:cy="175.78651"
     inkscape:window-x="65"
     inkscape:window-y="24"
     inkscape:window-maximized="0"
     inkscape:current-layer="svg3243" /><defs
     id="defs3245" /><path
     style="fill:none"
     d="m 69.910854,226.91382 -50.465722,-29.23341 0,-57.95888 c 0,-45.406172 0.216005,-58.133103 0.997347,-58.763294 2.223853,-1.793649 99.526181,-57.636005 100.427661,-57.636005 0.53546,0 23.52782,13.015369 51.09413,28.923042 l 50.12057,28.923043 0.0105,58.314074 0.0105,58.31408 -50.68328,29.25292 c -27.87581,16.08911 -50.76491,29.21804 -50.86466,29.1754 -0.0998,-0.0426 -22.890951,-13.23258 -50.647098,-29.31097 l -8e-6,0 z"
     id="path4188"
     inkscape:connector-curvature="0" /><path
     style="fill:#000080"
     d="M 60.415592,244.1871 0.10295187,209.34087 0.01390566,139.55076 -0.07514059,69.760638 60.103634,35.024427 C 93.201959,15.919512 120.4721,0.24261301 120.70394,0.18687281 120.93578,0.13113261 148.17679,15.708913 181.23949,34.804162 l 60.11402,34.718636 0.0765,69.959892 0.0765,69.95989 -60.1775,34.74149 c -33.09763,19.10782 -60.27272,34.76574 -60.3891,34.79537 -0.11639,0.0296 -27.352297,-15.62691 -60.524248,-34.79234 z m 91.425548,-5.916 c 16.8358,-9.67155 39.53653,-22.73335 50.44606,-29.02622 l 19.83551,-11.44158 -0.084,-58.35463 -0.084,-58.354624 L 199.73426,68.26694 C 176.54637,54.881361 131.09011,28.831448 124.9079,25.385708 c -1.96892,-1.097404 -3.77036,-1.995279 -4.00321,-1.995279 -0.23285,0 -3.14536,1.534363 -6.47225,3.409696 C 94.013707,38.309934 42.663719,67.826736 27.613981,76.704774 l -7.406816,4.369379 -0.248463,3.871574 c -0.136655,2.129364 -0.295372,28.374283 -0.352706,58.322033 l -0.104242,54.45046 50.436886,29.21751 c 27.740287,16.06963 50.62927,29.15057 50.86441,29.06876 0.23514,-0.0818 14.20228,-8.06184 31.03809,-17.73339 z"
     id="path4192"
     inkscape:connector-curvature="0" /><path
     style="fill:#000080;stroke:#000000;stroke-width:4.09831047000000037;stroke-miterlimit:4;stroke-opacity:1;stroke-dasharray:none"
     d="m 50.092237,212.93707 c 0.134937,-0.21881 6.413437,-2.63053 13.952197,-5.35935 l 13.706851,-4.9615 0.316477,-6.7341 c 0.174055,-3.70375 0.311231,-12.17468 0.304843,-18.82427 -0.0068,-6.64958 0.130633,-18.87733 0.304525,-27.17276 l 0.316138,-15.08261 1.169433,-0.001 c 0.803345,-0.001 1.16916,-0.28994 1.168546,-0.92368 -3.95e-4,-0.50742 0.474251,-1.35166 1.054971,-1.87611 1.432831,-1.29401 8.252131,-1.20316 13.315573,0.17736 l 3.622533,0.98768 0.484861,-1.81745 C 100.40121,129.13 101.31057,121.3095 101.31341,118.4129 l 0.002,-2.11745 -2.623218,2.01842 c -9.935001,7.64447 -24.530118,10.13563 -38.712819,6.60769 -3.289934,-0.81838 -3.450034,-0.9305 -4.583571,-3.20992 -0.646027,-1.29907 -2.164467,-6.3364 -3.374324,-11.19408 -1.209857,-4.85769 -2.279255,-8.91152 -2.376436,-9.00852 -0.09718,-0.097 -2.286012,0.13927 -4.864049,0.52501 -2.946993,0.44096 -5.120209,0.53727 -5.853171,0.25941 -1.082359,-0.41033 -1.142015,-0.63029 -0.833351,-3.072971 0.182841,-1.44707 0.529594,-3.01515 0.770534,-3.48464 0.55425,-1.07994 6.244831,-2.88294 10.174583,-3.22372 2.512813,-0.21792 4.795444,0.18699 14.057898,2.49371 6.081883,1.51461 12.833675,2.97689 15.003977,3.24947 l 3.945986,0.49561 3.313187,-2.19411 c 1.822255,-1.20676 5.848492,-4.23085 8.947194,-6.7202 4.93705,-3.96615 6.3606,-4.81558 11.50737,-6.86637 3.23033,-1.28716 6.45447,-2.81605 7.16471,-3.39751 l 1.29146,-1.05721 -1.79947,-7.74871 c -2.10584,-9.06788 -2.09102,-12.44115 0.0741,-16.87722 1.82252,-3.73417 4.27472,-5.29294 8.7294,-5.54897 5.89833,-0.33896 9.62462,1.8058 11.39899,6.56102 1.81043,4.85184 1.79262,6.88218 -0.13243,15.09581 -0.96704,4.12618 -1.75874,7.89133 -1.75934,8.36701 -0.001,1.02112 1.94112,2.07109 9.07321,4.90456 4.23332,1.68182 6.05298,2.76656 9.93637,5.92332 2.61469,2.12545 6.55775,5.11976 8.76237,6.65403 l 4.0084,2.78958 4.11578,-0.46449 c 2.26367,-0.25545 7.66043,-1.37913 11.99278,-2.49705 4.33237,-1.11791 9.86132,-2.45646 12.28659,-2.97456 l 4.40956,-0.94197 5.21139,1.52674 c 5.13111,1.50322 5.21917,1.55459 5.71552,3.33488 0.81499,2.92311 0.65395,5.404771 -0.36813,5.673091 -0.86745,0.22775 -4.92215,-0.14389 -8.89462,-0.81524 l -2.02526,-0.34224 -1.35229,6.19915 c -1.87461,8.59362 -4.16524,15.73954 -5.22803,16.30963 -1.61921,0.86859 -6.82026,2.01873 -11.59522,2.56412 -10.48126,1.19718 -21.12108,-1.44726 -29.98111,-7.45156 l -3.03161,-2.05446 0.003,3.23262 c 0.004,3.59429 0.84547,10.30683 1.51221,12.05544 l 0.43201,1.13299 3.40857,-0.95136 c 7.68519,-2.14496 13.26599,-1.72439 14.24434,1.07345 0.30465,0.87124 0.91349,1.4755 1.58193,1.57005 l 1.08666,0.15368 0.42928,33.50148 c 0.23611,18.4258 0.51244,33.74979 0.61407,34.05329 0.10163,0.30349 6.3925,2.66009 13.97972,5.23686 7.5872,2.57677 13.79692,4.85378 13.79934,5.06005 0.01,0.83977 -2.34242,0.19643 -15.29671,-4.18341 l -13.5511,-4.58165 -0.3437,-16.04194 c -0.18904,-8.82307 -0.34931,-21.46317 -0.35615,-28.08909 -0.007,-6.62596 -0.16151,-14.77132 -0.34376,-18.10082 -0.30672,-5.60386 -0.4078,-6.06471 -1.36054,-6.20253 -0.62171,-0.09 -1.14453,-0.64374 -1.32047,-1.3987 -0.20924,-0.89782 -0.85464,-1.44588 -2.29178,-1.94607 -1.80279,-0.62747 -2.51737,-0.58422 -7.23043,0.43758 -8.08569,1.75301 -8.0972,1.75142 -8.89014,-1.22396 -0.90522,-3.39672 -1.4463,-16.74955 -0.67875,-16.75029 0.31215,-3e-4 1.97553,1.03512 3.69637,2.30094 4.0665,2.99124 8.90608,5.40331 13.47312,6.71507 5.24154,1.50547 14.28794,1.82995 20.13639,0.72222 7.16704,-1.35743 7.39099,-1.51116 8.88048,-6.09573 0.70371,-2.16599 2.01092,-7.08904 2.90491,-10.94012 0.89399,-3.85107 1.77515,-7.17612 1.95816,-7.389 0.18299,-0.212881 1.96258,-0.0459 3.95464,0.37122 1.99205,0.41704 4.53601,0.75738 5.65325,0.75629 l 2.03132,-0.002 -0.33786,-2.100001 c -0.18583,-1.15499 -0.58215,-2.39375 -0.88073,-2.7528 -0.59171,-0.71156 -8.10636,-3.1387 -9.71296,-3.13715 -0.54666,3.8e-4 -6.04664,1.24903 -12.22223,2.77445 -6.17557,1.52543 -13.37839,3.03117 -16.00624,3.34612 l -4.77795,0.57263 -3.9361,-2.65054 c -2.16485,-1.45782 -6.27027,-4.53845 -9.12315,-6.84588 -4.18846,-3.38768 -6.03779,-4.51905 -9.60615,-5.87686 -2.4305,-0.92485 -5.5733,-2.26501 -6.98398,-2.97816 -2.42761,-1.22721 -2.56499,-1.4013 -2.56677,-3.25232 -0.001,-1.07562 0.6965,-4.95397 1.55005,-8.61854 1.696,-7.28135 1.82018,-9.68893 0.66767,-12.94544 -2.69131,-7.60469 -11.12521,-9.966862 -16.36173,-4.58264 -4.06978,4.18457 -4.47804,7.53471 -2.14559,17.60577 0.9834,4.24616 1.78849,8.23616 1.7891,8.8667 0.002,1.52996 -2.39974,3.03139 -8.9951,5.62443 -4.4072,1.73275 -6.04903,2.71596 -10.244669,6.13506 -2.748015,2.2394 -6.861207,5.31828 -9.140455,6.84195 l -4.144083,2.77033 -4.854301,-0.57515 c -2.66989,-0.31633 -9.805802,-1.82743 -15.857624,-3.358 -11.94134,-3.02008 -12.531425,-3.05865 -18.252185,-1.19331 -3.769237,1.22903 -4.498342,1.9726 -4.495837,4.58506 0.0021,1.833911 0.06508,1.904471 1.707946,1.902891 0.938354,-10e-4 3.453743,-0.33776 5.589768,-0.74858 2.136003,-0.41082 3.931263,-0.693811 3.989454,-0.628881 0.05815,0.065 1.124197,4.226471 2.368905,9.247841 1.244709,5.02136 2.792881,10.18843 3.440379,11.48238 1.12806,2.25424 1.323683,2.39284 4.678411,3.31489 2.774961,0.76272 5.212324,0.96711 11.751609,0.98545 7.983847,0.0223 8.404082,-0.0285 13.003289,-1.57299 4.772716,-1.6028 9.154122,-3.92242 12.585904,-6.66326 1.014404,-0.81018 2.342349,-1.47352 2.950979,-1.47411 1.10121,-10e-4 1.10507,0.0302 0.7891,6.3746 -0.29202,5.86398 -1.23765,11.71152 -2.0208,12.49619 -0.177177,0.17752 -2.511052,-0.20369 -5.186378,-0.84714 -8.19501,-1.97097 -12.614936,-1.41963 -12.612057,1.57325 3.79e-4,0.6507 -0.367459,0.92292 -1.249175,0.92376 l -1.250077,0.001 -0.0602,12.12573 c -0.0332,6.66916 -0.187278,21.90016 -0.342481,33.84666 l -0.282163,21.72091 -13.496039,4.90935 c -12.325086,4.48339 -16.231124,5.62127 -15.559801,4.53269 z"
     id="path3126"
     inkscape:connector-curvature="0" /><path
     style="fill:#000080"
     d="m 59.863398,244.08424 -59.74999952,-34.5663 0.0426145,-70.15223 0.0426146,-70.152216 55.64051442,-32 c 30.602284,-17.6 57.740348,-33.207902 60.306808,-34.6842264 l 4.66628,-2.68422623 60.40059,34.80185863 60.40058,34.801859 0.25668,69.899351 0.25669,69.89935 -59.73066,34.48302 c -32.85186,18.96565 -60.41737,34.58135 -61.25668,34.70153 -0.83932,0.12019 -28.413532,-15.33631 -61.276032,-34.34777 z m 96.548362,-8.52391 c 19.3609,-11.08423 35.3424,-20.2625 35.51445,-20.39614 0.17205,-0.13364 -5.94534,-2.32867 -13.59418,-4.87784 l -13.90699,-4.63485 -0.65582,-16.62872 c -0.3607,-9.14579 -0.65582,-24.3534 -0.65582,-33.79469 0,-16.57187 -0.0788,-17.24005 -2.27826,-19.30629 -2.1412,-2.01155 -2.68606,-2.07274 -9.05701,-1.01704 -9.36938,1.55256 -9.85238,0.96882 -10.45757,-12.63874 -0.25813,-5.80389 -0.12146,-10.55253 0.3037,-10.55253 0.42516,0 3.58124,1.77356 7.01352,3.94124 9.43869,5.96107 14.76939,7.37194 25.99786,6.88085 6.78441,-0.29673 9.94001,-0.85577 11.04008,-1.95584 0.8472,-0.8472 2.75793,-6.22619 4.24606,-11.95331 l 2.7057,-10.412936 5.49296,0.267981 c 5.26231,0.256729 5.38799,0.205729 2.99296,-1.214565 -3.5548,-2.10806 -6.21269,-1.930583 -21.66398,1.446584 -7.54911,1.649996 -14.81204,2.999996 -16.13984,2.999996 -1.40038,0 -6.19473,-2.774846 -11.41686,-6.607785 -4.95148,-3.634284 -12.32743,-8.122923 -16.391,-9.974753 -8.47296,-3.861251 -8.51346,-3.974355 -6.05795,-16.917458 2.02096,-10.652581 -0.44077,-16.5 -6.9464,-16.5 -3.63299,0 -7.06721,2.889763 -8.0399,6.765251 -0.31819,1.267777 0.20247,6.325943 1.15702,11.240367 0.95455,4.914424 1.47751,9.607778 1.16211,10.429675 -0.31539,0.821898 -3.84328,3.141027 -7.83976,5.153621 -3.99648,2.012595 -11.262088,6.528423 -16.145796,10.035175 -5.878039,4.220731 -9.830745,6.375907 -11.693738,6.375907 -1.547848,0 -9.017971,-1.39419 -16.600273,-3.098191 -13.692782,-3.077244 -19.476585,-3.293204 -21.797328,-0.813884 -0.819968,0.875996 0.18956,1.000539 4.117524,0.507988 l 5.20383,-0.652545 1.110895,4.278312 c 0.610992,2.35308 2.103012,7.62698 3.3156,11.71979 2.076372,7.0083 2.407308,7.49435 5.685275,8.35002 1.914313,0.49971 7.755569,0.7382 12.980569,0.52999 9.141966,-0.3643 9.829983,-0.5586 18.255714,-5.15551 4.815646,-2.62732 9.203148,-4.50041 9.749998,-4.16244 2.5372,1.56807 -0.0956,23.29377 -2.75766,22.75615 -0.654482,-0.13217 -4.367679,-0.53565 -8.251551,-0.89662 -6.17905,-0.57428 -7.231092,-0.4245 -8.417872,1.19852 -1.039547,1.42167 -1.527868,9.63364 -2.09101,35.16397 -0.432622,19.6131 -1.133835,33.5558 -1.70537,33.90903 -0.533854,0.32994 -7.285264,2.77867 -15.003132,5.44163 l -14.032488,4.84175 3.848091,2.29102 c 14.259438,8.48958 65.053132,37.6408 65.703642,37.70824 0.43909,0.0455 16.63909,-8.98614 36,-20.07038 z m -94.704579,-29.22152 13.906217,-5.26218 0.610981,-28.93157 c 0.336039,-15.91236 0.673539,-31.29407 0.75,-34.18157 0.09941,-3.75426 0.535892,-5.25 1.53203,-5.25 0.766156,0 1.630229,-0.61818 1.920162,-1.37373 0.760387,-1.98154 6.502654,-2.78709 12.234352,-1.71629 2.722996,0.50871 5.000361,0.84957 5.060811,0.75747 0.06045,-0.0921 0.383777,-2.26177 0.718504,-4.8215 l 0.6086,-4.65406 -5.853441,2.925 c -8.140017,4.06761 -19.254102,5.58112 -28.88565,3.93362 -8.126527,-1.39007 -10.276754,-2.97475 -11.978536,-8.82801 -0.595255,-2.04738 -1.827934,-6.3383 -2.739287,-9.53538 l -1.657005,-5.81289 -5.028638,0.31289 c -5.961601,0.37093 -7.412729,-1.06952 -6.418177,-6.370933 1.344143,-7.164898 10.330083,-8.342983 29.960114,-3.927864 7.60915,1.711425 14.178026,3.111681 14.597502,3.111681 0.419475,0 4.601858,-2.895831 9.294183,-6.435181 4.692324,-3.53935 11.545287,-7.801698 15.228807,-9.471886 5.31292,-2.408991 6.58586,-3.404257 6.15816,-4.814819 -4.26643,-14.070629 -2.96588,-24.493153 3.47172,-27.822165 1.54852,-0.800772 5.02715,-1.455949 7.73029,-1.455949 6.13179,0 9.39306,2.360727 11.73583,8.49517 1.60486,4.202271 1.60706,5.028141 0.0363,13.613641 -0.9197,5.026987 -1.54065,9.200852 -1.3799,9.275255 9.47642,4.386184 15.25494,7.618993 19.71997,11.03241 11.13134,8.509644 8.77266,8.146488 26.59335,4.094473 15.32641,-3.484872 15.87275,-3.538385 20.97678,-2.054603 2.88229,0.837903 5.68734,2.090504 6.23346,2.783557 1.68837,2.142652 2.36769,6.706633 1.29621,8.708703 -0.8709,1.62729 -1.79853,1.82731 -6.3135,1.36132 l -5.2926,-0.54624 -1.85084,7.86815 c -2.89186,12.29364 -3.99846,14.01786 -9.97599,15.54375 -11.25242,2.87243 -26.06691,1.01836 -35.27544,-4.41481 l -3.31911,-1.95833 0.0137,2.84877 c 0.0318,6.63416 0.50041,7.03298 7.0004,5.95799 5.97398,-0.98799 6.02059,-0.97779 13.15852,2.87792 1.60817,0.86869 1.82743,2.37909 1.82743,12.58839 0,6.3807 0.29405,21.70525 0.65345,34.05456 l 0.65346,22.4533 14.20414,5.2156 14.20415,5.2156 11.8924,-6.91054 11.8924,-6.91055 0.25363,-58.34675 0.25357,-58.346736 -50.25362,-28.754658 c -27.6395,-15.815062 -50.61611,-28.752562 -51.05914,-28.75 -0.67685,0.0039 -20.55349,11.330163 -91.944492,52.392476 l -8.75,5.032781 0.03571,58.539697 0.03571,58.5397 13.214292,7.56649 c 7.26786,4.16157 13.481493,7.17376 13.808074,6.69375 0.326581,-0.48001 6.851581,-3.24072 14.5,-6.13492 l -3e-6,0 z"
     id="path4212"
     inkscape:connector-curvature="0" /></svg>