<?xml version="1.0" encoding="UTF-8" standalone="no"?>
<!-- Generator: Adobe Illustrator 18.1.1, SVG Export Plug-In  -->

<svg
   xmlns:dc="http://purl.org/dc/elements/1.1/"
   xmlns:cc="http://creativecommons.org/ns#"
   xmlns:rdf="http://www.w3.org/1999/02/22-rdf-syntax-ns#"
   xmlns:svg="http://www.w3.org/2000/svg"
   xmlns="http://www.w3.org/2000/svg"
   xmlns:sodipodi="http://sodipodi.sourceforge.net/DTD/sodipodi-0.dtd"
   xmlns:inkscape="http://www.inkscape.org/namespaces/inkscape"
   version="1.1"
   x="0px"
   y="0px"
   width="241.7px"
   height="279.1px"
   viewBox="0 0 241.7 279.1"
   enable-background="new 0 0 241.7 279.1"
   xml:space="preserve"
   id="svg3243"
   inkscape:version="0.48.4 r9939"
   sodipodi:docname="node-school-hav.3.svg"><metadata
     id="metadata3251"><rdf:RDF><cc:Work
         rdf:about=""><dc:format>image/svg+xml</dc:format><dc:type
           rdf:resource="http://purl.org/dc/dcmitype/StillImage" /><dc:title /></cc:Work></rdf:RDF></metadata><sodipodi:namedview
     pagecolor="#ffffff"
     bordercolor="#666666"
     borderopacity="1"
     objecttolerance="10"
     gridtolerance="10"
     guidetolerance="10"
     inkscape:pageopacity="0"
     inkscape:pageshadow="2"
     inkscape:window-width="1002"
     inkscape:window-height="849"
     id="namedview3249"
     showgrid="false"
     inkscape:zoom="1"
     inkscape:cx="172.84355"
     inkscape:cy="84.933835"
     inkscape:window-x="256"
     inkscape:window-y="125"
     inkscape:window-maximized="0"
     inkscape:current-layer="svg3243"
     inkscape:snap-bbox="true"
     inkscape:snap-global="true" /><defs
     id="defs3245" /><polygon
     fill="none"
     stroke="#000000"
     stroke-width="20"
     stroke-miterlimit="10"
     points="231.7,203.5 120.9,267.5 10,203.5  10,75.5 120.9,11.5 231.7,75.5 "
     id="polygon3247" /><path
     style="fill:none"
     d="m 69.910854,226.91382 -50.465722,-29.23341 0,-57.95888 c 0,-45.406172 0.216005,-58.133103 0.997347,-58.763294 2.223853,-1.793649 99.526181,-57.636005 100.427661,-57.636005 0.53546,0 23.52782,13.015369 51.09413,28.923042 l 50.12057,28.923043 0.0105,58.314074 0.0105,58.31408 -50.68328,29.25292 c -27.87581,16.08911 -50.76491,29.21804 -50.86466,29.1754 -0.0998,-0.0426 -22.890951,-13.23258 -50.647098,-29.31097 l -8e-6,0 z"
     id="path4188"
     inkscape:connector-curvature="0" /><path
     style="fill:#000080"
     d="M 60.415592,244.1871 0.10295187,209.34087 0.01390566,139.55076 -0.07514059,69.760638 60.103634,35.024427 C 93.201959,15.919512 120.4721,0.24261301 120.70394,0.18687281 120.93578,0.13113261 148.17679,15.708913 181.23949,34.804162 l 60.11402,34.718636 0.0765,69.959892 0.0765,69.95989 -60.1775,34.74149 c -33.09763,19.10782 -60.27272,34.76574 -60.3891,34.79537 -0.11639,0.0296 -27.352297,-15.62691 -60.524248,-34.79234 z m 91.425548,-5.916 c 16.8358,-9.67155 39.53653,-22.73335 50.44606,-29.02622 l 19.83551,-11.44158 -0.084,-58.35463 -0.084,-58.354624 L 199.73426,68.26694 C 176.54637,54.881361 131.09011,28.831448 124.9079,25.385708 c -1.96892,-1.097404 -3.77036,-1.995279 -4.00321,-1.995279 -0.23285,0 -3.14536,1.534363 -6.47225,3.409696 C 94.013707,38.309934 42.663719,67.826736 27.613981,76.704774 l -7.406816,4.369379 -0.248463,3.871574 c -0.136655,2.129364 -0.295372,28.374283 -0.352706,58.322033 l -0.104242,54.45046 50.436886,29.21751 c 27.740287,16.06963 50.62927,29.15057 50.86441,29.06876 0.23514,-0.0818 14.20228,-8.06184 31.03809,-17.73339 z"
     id="path4192"
     inkscape:connector-curvature="0" /><path
     style="stroke:#000080;stroke-width:3.66209364;stroke-miterlimit:4;stroke-opacity:1;stroke-dasharray:none"
     d="m 56.579863,211.19593 c 0.120579,-0.19552 5.730802,-2.35055 12.46715,-4.78892 l 12.247919,-4.43339 0.282793,-6.01734 c 0.155528,-3.30953 0.278102,-10.87884 0.272396,-16.82065 -0.0061,-5.94181 0.116722,-16.86807 0.272112,-24.28054 l 0.282488,-13.47725 1.04496,-8.9e-4 c 0.717839,-9e-4 1.044717,-0.25908 1.044169,-0.82537 -3.53e-4,-0.45341 0.423772,-1.20779 0.942681,-1.67642 1.280324,-1.15628 7.37379,-1.07509 11.898288,0.15848 l 3.236961,0.88256 0.43325,-1.624 c 0.52901,-1.98307 1.34158,-8.97117 1.34412,-11.55946 l 0.002,-1.89208 -2.34401,1.80359 c -8.877536,6.8308 -21.919176,9.05681 -34.592296,5.90438 -2.939759,-0.73128 -3.082817,-0.83147 -4.095704,-2.86826 -0.577265,-1.16081 -1.934085,-5.66197 -3.015165,-10.00261 -1.081083,-4.34065 -2.036658,-7.96299 -2.123494,-8.04966 -0.08684,-0.0867 -2.042693,0.12439 -4.346328,0.46912 -2.633321,0.39402 -4.575224,0.48009 -5.230171,0.23181 -0.967155,-0.36666 -1.02046,-0.56321 -0.74465,-2.7459 0.163379,-1.29304 0.473225,-2.69422 0.688519,-3.11374 0.495256,-0.96499 5.580143,-2.57609 9.09162,-2.88059 2.245353,-0.19472 4.285025,0.16708 12.5616,2.22828 5.434539,1.3534 11.467681,2.66004 13.406981,2.90361 l 3.525984,0.44285 2.960536,-1.96057 c 1.628298,-1.07832 5.22599,-3.78053 7.994872,-6.00491 4.411556,-3.544 5.683586,-4.303018 10.282546,-6.135524 2.8865,-1.150163 5.76747,-2.516329 6.4021,-3.035891 l 1.15401,-0.944685 -1.60793,-6.92395 c -1.88171,-8.102718 -1.86846,-11.116934 0.0662,-15.080836 1.62853,-3.336718 3.81973,-4.729573 7.80026,-4.958351 5.27052,-0.302882 8.60019,1.613594 10.18569,5.862681 1.61773,4.33541 1.60183,6.149645 -0.11832,13.489039 -0.86411,3.686987 -1.57154,7.051387 -1.57206,7.476435 -9.1e-4,0.912441 1.7345,1.850657 8.10746,4.382524 3.78272,1.50282 5.4087,2.472102 8.87877,5.292868 2.33639,1.89921 5.85975,4.57481 7.82971,5.94578 l 3.58175,2.49266 3.6777,-0.41505 c 2.02274,-0.22827 6.84507,-1.23233 10.7163,-2.23128 3.87124,-0.99892 8.81169,-2.19499 10.97882,-2.65794 l 3.94023,-0.84171 4.6567,1.36424 c 4.58495,1.34322 4.66363,1.38912 5.10715,2.97992 0.72826,2.61197 0.58435,4.82949 -0.32893,5.06925 -0.77513,0.2035 -4.39825,-0.12852 -7.9479,-0.72846 l -1.80969,-0.30582 -1.20836,5.53933 c -1.67508,7.67892 -3.72191,14.06424 -4.67157,14.57367 -1.44686,0.77613 -6.09432,1.80386 -10.36104,2.2912 -9.36566,1.06974 -18.87299,-1.29322 -26.78999,-6.65844 l -2.70892,-1.83578 0.002,2.88854 c 0.004,3.21173 0.75549,9.2098 1.35125,10.77228 l 0.38604,1.01239 3.04576,-0.85009 c 6.86719,-1.91666 11.85397,-1.54085 12.7282,0.95919 0.27222,0.77851 0.81626,1.31845 1.41354,1.40293 l 0.971,0.13733 0.38359,29.93564 c 0.21097,16.46459 0.45791,30.15753 0.54871,30.42873 0.0908,0.27119 5.71209,2.37696 12.49175,4.67945 6.77963,2.3025 12.3284,4.33716 12.33056,4.52147 0.009,0.75038 -2.09309,0.17552 -13.66855,-3.73813 l -12.10875,-4.094 -0.30713,-14.33446 c -0.1689,-7.88395 -0.31212,-19.17866 -0.31823,-25.09934 -0.006,-5.9207 -0.14432,-13.19909 -0.30716,-16.17421 -0.27408,-5.00738 -0.36441,-5.41918 -1.21574,-5.54232 -0.55554,-0.0804 -1.0227,-0.57523 -1.17991,-1.24983 -0.18698,-0.80227 -0.76368,-1.292 -2.04785,-1.73893 -1.61091,-0.5607 -2.24943,-0.52205 -6.46084,0.391 -7.22507,1.56642 -7.23535,1.56499 -7.94389,-1.09368 -0.80887,-3.03519 -1.29236,-14.96676 -0.6065,-14.96743 0.27891,-2.6e-4 1.76525,0.92494 3.30293,2.05603 3.63367,2.67286 7.95813,4.8282 12.03907,6.00033 4.68364,1.34524 12.76716,1.63517 17.9931,0.64535 6.4042,-1.21295 6.60432,-1.35031 7.93526,-5.44691 0.62881,-1.93545 1.79688,-6.3345 2.59572,-9.77568 0.79884,-3.44117 1.58621,-6.4123 1.74973,-6.60253 0.16352,-0.19022 1.75369,-0.041 3.53373,0.33172 1.78001,0.37265 4.0532,0.67677 5.05151,0.67578 l 1.81512,-10e-4 -0.3019,-1.87648 c -0.16605,-1.03206 -0.52018,-2.13897 -0.78699,-2.4598 -0.52873,-0.63582 -7.24353,-2.80462 -8.67912,-2.80324 -0.48848,3.4e-4 -5.40306,1.11608 -10.92132,2.47915 -5.51826,1.36306 -11.95442,2.70854 -14.30258,2.98995 l -4.26939,0.51169 -3.51714,-2.36843 c -1.93443,-1.30264 -5.60289,-4.05538 -8.15211,-6.11722 -3.74263,-3.027087 -5.39512,-4.038037 -8.58368,-5.251327 -2.17181,-0.826418 -4.98009,-2.023934 -6.24061,-2.661174 -2.16923,-1.096587 -2.29199,-1.25214 -2.29358,-2.906144 -8.9e-4,-0.961134 0.62238,-4.426678 1.38507,-7.701202 1.51549,-6.506341 1.62644,-8.657659 0.5966,-11.567552 -2.40485,-6.795256 -9.94105,-8.906006 -14.62022,-4.09487 -3.6366,3.739168 -4.0014,6.732726 -1.91721,15.731841 0.87873,3.794211 1.59813,7.359526 1.59867,7.922951 0.002,1.367119 -2.14432,2.70873 -8.03768,5.025771 -3.93811,1.548321 -5.40518,2.426879 -9.154246,5.482056 -2.455521,2.00104 -6.130912,4.75221 -8.167561,6.1137 l -3.702995,2.47547 -4.337617,-0.51393 c -2.385712,-0.28268 -8.762091,-1.63292 -14.169769,-3.00058 -10.670325,-2.69864 -11.197601,-2.7331 -16.309454,-1.06631 -3.368047,1.09822 -4.019548,1.76264 -4.017309,4.09705 0.0019,1.63871 0.05816,1.70175 1.526156,1.70035 0.838476,-8.9e-4 3.086133,-0.30181 4.994802,-0.66891 1.90865,-0.36709 3.512827,-0.61996 3.564824,-0.56194 0.05196,0.058 1.00454,3.77661 2.116763,8.26352 1.112225,4.48689 2.495612,9.10398 3.074192,10.26022 1.007991,2.0143 1.182792,2.13814 4.180449,2.96204 2.4796,0.68155 4.657534,0.86418 10.500789,0.88056 7.134061,0.0199 7.509567,-0.0254 11.619243,-1.40556 4.264717,-1.4322 8.179774,-3.50492 11.246283,-5.95403 0.90643,-0.72395 2.09303,-1.31668 2.63688,-1.31721 0.984,-8.8e-4 0.98746,0.027 0.70511,5.69611 -0.26094,5.23982 -1.10591,10.46496 -1.80571,11.16612 -0.15832,0.15861 -2.24378,-0.18202 -4.634346,-0.75699 -7.32275,-1.76117 -11.272225,-1.26851 -11.269654,1.4058 3.39e-4,0.58145 -0.328347,0.8247 -1.116215,0.82545 l -1.117021,8.8e-4 -0.05379,10.8351 c -0.02966,5.9593 -0.167344,19.56915 -0.306027,30.24408 l -0.252131,19.40897 -12.059544,4.38681 c -11.013226,4.00618 -14.503513,5.02295 -13.903644,4.05023 z"
     id="path3126"
     inkscape:connector-curvature="0" /><path
     inkscape:connector-curvature="0"
     style="fill:#000080"
     d="m 167.67581,218.94423 c -0.30788,-0.55418 -1.04677,-0.7389 -1.53938,-0.43103 l -40.82413,23.58318 17.36411,-22.16695 c 0.36945,-0.49261 0.30788,-1.2315 -0.18473,-1.60095 -0.49259,-0.36945 -1.2315,-0.30788 -1.60094,0.18472 l -18.96506,24.19893 v -23.64475 c 0,-0.61575 -0.4926,-1.16992 -1.16992,-1.16992 -0.67733,0 -1.16992,0.49259 -1.16992,1.16992 v 23.64475 L 100.62077,218.5132 c -0.36945,-0.4926 -1.108345,-0.55417 -1.600943,-0.18472 -0.492599,0.36945 -0.554174,1.10834 -0.184725,1.60095 l 17.364118,22.16695 -41.624619,-24.0142 c -0.554174,-0.30787 -1.231498,-0.12315 -1.539372,0.43102 -0.307874,0.55418 -0.12315,1.2315 0.431024,1.53937 l 46.735337,26.9698 c 0,0 0,0 0.0616,0 0.0616,0 0.0616,0.0616 0.12315,0.0616 0,0 0,0 0.0616,0 0,0 0,0 0.0616,0 0,0 0.0616,0 0.0616,0 0.0616,0 0.18472,0.0616 0.2463,0.0616 l 0,0 0,0 0,0 c 0,0 0,0 0,0 0.12314,0 0.18472,0 0.24629,-0.0616 0,0 0.0616,0 0.0616,0 0,0 0.0616,0 0.0616,0 0.0616,0 0.0616,-0.0616 0.12314,-0.0616 0,0 0,0 0.0616,0 l 45.99642,-26.53877 c 0.43103,-0.2463 0.61575,-0.9852 0.30788,-1.53937 z"
     id="bottom-stripes" /><circle
     sodipodi:ry="2.3"
     sodipodi:rx="2.3"
     sodipodi:cy="366.70001"
     sodipodi:cx="786.29999"
     transform="matrix(0.61574873,0,0,0.61574873,-313.40869,-9.00596)"
     style="fill:#000080"
     cx="786.29999"
     cy="366.70001"
     r="2.3"
     id="bottom-dot-right"
     d="m 788.59999,366.70001 c 0,1.27026 -1.02975,2.3 -2.3,2.3 -1.27026,0 -2.3,-1.02974 -2.3,-2.3 0,-1.27025 1.02974,-2.3 2.3,-2.3 1.27025,0 2.3,1.02975 2.3,2.3 z" /><circle
     sodipodi:ry="2.3"
     sodipodi:rx="2.3"
     sodipodi:cy="366.70001"
     sodipodi:cx="622.79999"
     transform="matrix(0.61574873,0,0,0.61574873,-313.40869,-9.00596)"
     style="fill:#000080"
     id="bottom-dot-left"
     cx="622.79999"
     cy="366.70001"
     r="2.3"
     d="m 625.09999,366.70001 c 0,1.27026 -1.02975,2.3 -2.3,2.3 -1.27026,0 -2.3,-1.02974 -2.3,-2.3 0,-1.27025 1.02974,-2.3 2.3,-2.3 1.27025,0 2.3,1.02975 2.3,2.3 z" /><text
     id="letter-left"
     x="-47.392288"
     y="231.95953"
     font-size="16"
     style="font-size:9.85197926px;font-weight:bold;fill:#000080"
     transform="matrix(0.81915204,-0.57357644,0.57357644,0.81915204,0,0)">H</text>
<text
     id="letter-middle"
     x="116.9997"
     y="212.66359"
     style="font-size:9.85197926px;font-weight:bold;fill:#000080"
     font-size="16">A</text>
<text
     id="letter-right"
     x="238.67461"
     y="93.988487"
     style="font-size:9.85197926px;font-weight:bold;fill:#000080"
     font-size="16"
     transform="matrix(0.81915204,0.57357644,-0.57357644,0.81915204,0,0)">B</text>
<g
     transform="matrix(0.86682531,-0.49861195,0.49861195,0.86682531,-296.43042,94.801729)"
     style="fill:#000080"
     id="nodeschool-banner"
     inkscape:transform-center-x="13"><g
       transform="matrix(0.36985453,0.64550439,-0.64550439,0.36985453,359.7221,-262.02852)"
       style="fill:#000080"
       id="nodeschool-banner-4"
       inkscape:transform-center-x="70"
       inkscape:transform-center-y="30.293037"><path
         inkscape:connector-curvature="0"
         d="m 524.756,249.5678 c 1.5,1.1 3.2,1.6 5,1.6 2.9,0 4.9,-1.5 4.9,-4.1 v 0 c 0,-2.3 -1.5,-3.3 -4.2,-4 -2.3,-0.6 -2.9,-0.9 -2.9,-1.7 v 0 c 0,-0.6 0.6,-1.2 1.7,-1.2 0.9,0 1.8,0.3 2.8,0.9 0.2,0.1 0.5,0.2 0.7,0.2 0.8,0 1.4,-0.6 1.4,-1.3 0,-0.6 -0.3,-1 -0.6,-1.2 -1.2,-0.8 -2.6,-1.2 -4.2,-1.2 -2.7,0 -4.6,1.6 -4.6,4 v 0 c 0,2.6 1.7,3.4 4.4,4 2.2,0.6 2.7,0.9 2.7,1.7 v 0 c 0,0.8 -0.7,1.2 -1.9,1.2 -1.3,0 -2.4,-0.5 -3.4,-1.2 -0.2,-0.1 -0.5,-0.3 -0.8,-0.3 -0.8,0 -1.4,0.6 -1.4,1.3 -0.2,0.7 0.1,1.1 0.4,1.3 z"
         id="path4357" /><path
         inkscape:connector-curvature="0"
         d="m 543.256,251.1678 c 2.1,0 3.5,-0.6 4.7,-1.7 0.3,-0.2 0.5,-0.6 0.5,-1 0,-0.7 -0.6,-1.3 -1.4,-1.3 -0.3,0 -0.6,0.1 -0.9,0.3 -0.8,0.7 -1.6,1 -2.9,1 -2.3,0 -3.8,-1.9 -3.8,-4.2 v 0 c 0,-2.3 1.6,-4.1 3.8,-4.1 1,0 1.9,0.3 2.7,0.9 0.2,0.1 0.5,0.3 0.9,0.3 0.8,0 1.4,-0.6 1.4,-1.4 0,-0.5 -0.3,-0.9 -0.6,-1.2 -1.1,-0.8 -2.4,-1.3 -4.4,-1.3 -4.1,0 -6.9,3.1 -6.9,6.8 v 0 c 0.2,3.9 3.1,6.9 6.9,6.9 z"
         id="path4359" /><path
         inkscape:connector-curvature="0"
         d="m 552.556,251.0678 c 0.8,0 1.5,-0.6 1.5,-1.5 v -4 h 5.4 v 4 c 0,0.8 0.6,1.5 1.5,1.5 0.8,0 1.5,-0.6 1.5,-1.5 v -10.5 c 0,-0.8 -0.6,-1.5 -1.5,-1.5 -0.8,0 -1.5,0.6 -1.5,1.5 v 3.9 h -5.4 v -3.9 c 0,-0.8 -0.6,-1.5 -1.5,-1.5 -0.8,0 -1.5,0.6 -1.5,1.5 v 10.5 c 0,0.9 0.6,1.5 1.5,1.5 z"
         id="path4361" /><path
         inkscape:connector-curvature="0"
         d="m 571.856,251.1678 c 4.1,0 7,-3.1 7,-6.8 v 0 c 0,-3.8 -2.9,-6.8 -7,-6.8 -4.1,0 -7.1,3.1 -7.1,6.8 v 0 c 0.1,3.8 3,6.8 7.1,6.8 z m -4,-6.8 c 0,-2.3 1.6,-4.1 4,-4.1 2.3,0 4,1.9 4,4.2 v 0 c 0,2.3 -1.6,4.1 -4,4.1 -2.3,-0.1 -4,-1.9 -4,-4.2 l 0,0 z"
         id="path4363" /><path
         inkscape:connector-curvature="0"
         d="m 587.956,251.1678 c 4.1,0 7.1,-3.1 7.1,-6.8 v 0 c 0,-3.8 -2.9,-6.8 -7,-6.8 -4.1,0 -7.1,3.1 -7.1,6.8 v 0 c 0,3.8 2.9,6.8 7,6.8 z m -4,-6.8 c 0,-2.3 1.6,-4.1 4,-4.1 2.3,0 4,1.9 4,4.2 v 0 c 0,2.3 -1.6,4.1 -4,4.1 -2.3,-0.1 -4,-1.9 -4,-4.2 l 0,0 z"
         id="path4365" /><path
         inkscape:connector-curvature="0"
         d="m 599.056,250.9678 h 6.8 c 0.7,0 1.3,-0.6 1.3,-1.3 0,-0.7 -0.6,-1.3 -1.3,-1.3 h -5.4 v -9.2 c 0,-0.8 -0.6,-1.5 -1.5,-1.5 -0.8,0 -1.5,0.6 -1.5,1.5 v 10.3 c 0.1,0.9 0.8,1.5 1.6,1.5 z"
         id="path4367" /></g><g
       transform="matrix(0.7426254,-0.04444984,0.04444984,0.7426254,56.253623,176.40268)"
       style="fill:#000080"
       id="nodeschool-banner-4-7"><path
         inkscape:connector-curvature="0"
         d="m 381.02253,5.7716598 c 0.79817,0.054126 1.43741,-0.5038736 1.49155,-1.3020391 l 0.48053,-7.0837196 5.27234,7.9751122 c 0.36524,0.5259253 0.73726,0.9520804 1.43565,0.999455 l 0.0998,0.00677 c 0.79817,0.054126 1.53717,-0.4971057 1.59808,-1.3950429 l 0.71064,-10.4759228 c 0.0542,-0.798162 -0.50388,-1.437398 -1.30204,-1.491541 -0.79817,-0.05413 -1.43739,0.503873 -1.49154,1.302039 l -0.46022,6.7844077 -5.08634,-7.7620357 c -0.36524,-0.525924 -0.73726,-0.952079 -1.43566,-0.999455 l -0.2993,-0.02031 c -0.79817,-0.05413 -1.53718,0.497104 -1.59809,1.395042 l -0.71064,10.475923 c -0.0611,0.8979242 0.4971,1.537168 1.29526,1.5913111 z"
         id="path4349-0"
         inkscape:transform-center-x="14.787413"
         inkscape:transform-center-y="16.058426" /><path
         inkscape:connector-curvature="0"
         d="m 400.87015,7.2182438 c 4.09059,0.2774837 7.29351,-2.6123713 7.54393,-6.30388751 v 0 c 0.25713,-3.79129009 -2.43313,-6.98067769 -6.52373,-7.25816169 -4.0906,-0.277483 -7.29353,2.6123707 -7.54394,6.30388699 v 0 c -0.25713,3.79129051 2.43313,6.98067791 6.52374,7.25816221 z M 397.4393,0.16988739 c 0.15568,-2.29472579 1.87382,-3.98231299 4.26832,-3.81988329 2.29472,0.155662 3.86223,2.1663595 3.70657,4.46108609 v 0 C 405.25851,3.1058158 403.54037,4.7934024 401.14588,4.6309729 398.75815,4.3687732 397.28364,2.4646136 397.4393,0.16988739 l 0,0 z"
         id="path4351-2"
         inkscape:transform-center-x="4.7281529"
         inkscape:transform-center-y="10.389532" /><path
         inkscape:connector-curvature="0"
         d="m 411.95823,7.7699398 3.69151,0.2504109 c 4.19038,0.2842578 7.18022,-2.4195973 7.43064,-6.1111135 v 0 c 0.25042,-3.6915156 -2.44667,-6.7811366 -6.53728,-7.0586206 l -3.69151,-0.250411 c -0.79817,-0.05413 -1.53717,0.497106 -1.59808,1.3950425 l -0.69033,10.1766115 c 0.0388,0.9047035 0.59687,1.5439364 1.39504,1.5980796 z m 2.21396,-10.474177 2.19495,0.1488935 c 2.3945,0.1624295 3.88254,1.86704779 3.72012,4.2615446 v 0 c -0.15568,2.2947257 -1.86706,3.8825425 -4.26155,3.720112 l -2.19496,-0.1488921 0.54146,-7.9816547 z"
         id="path4353-2"
         inkscape:transform-center-x="-4.7295651"
         inkscape:transform-center-y="5.3639969" /><path
         inkscape:connector-curvature="0"
         d="m 426.7243,8.7715892 7.38303,0.5008219 c 0.69838,0.047423 1.33762,-0.5106412 1.385,-1.2090365 0.0473,-0.6983983 -0.51065,-1.3376267 -1.20904,-1.3850024 l -5.98624,-0.4060759 0.18949,-2.7935802 4.98855,0.338394 c 0.69839,0.047422 1.33763,-0.5106422 1.385,-1.2090375 0.0473,-0.6983973 -0.51065,-1.3376267 -1.20904,-1.3850013 l -4.98853,-0.33839341 0.18269,-2.69381159 5.88647,0.399306 c 0.69839,0.047373 1.33763,-0.5106415 1.385,-1.2090366 0.0473,-0.6983981 -0.51064,-1.3376271 -1.20903,-1.3850018 l -7.28327,-0.4940589 c -0.79817,-0.054126 -1.53717,0.4971056 -1.59807,1.3950422 l -0.69714,10.2763811 c 0.0388,0.9047034 0.59688,1.543936 1.39505,1.5980791 z"
         id="path4355-6"
         inkscape:transform-center-x="-14.351822"
         inkscape:transform-center-y="-0.42312874" /></g><path
       sodipodi:type="arc"
       style="fill:#000080;stroke:#000000;stroke-width:0;stroke-miterlimit:4;stroke-opacity:1;stroke-dasharray:none"
       id="path4942"
       sodipodi:cx="122"
       sodipodi:cy="38.600006"
       sodipodi:rx="3"
       sodipodi:ry="3"
       d="m 125,38.600006 a 3,3 0 1 1 -6,0 3,3 0 1 1 6,0 z"
       transform="matrix(0.86682533,0.49861196,-0.49861196,0.86682533,302.48902,64.629984)" /></g></svg>